<?xml version="1.0" standalone="no"?>
<!DOCTYPE svg PUBLIC "-//W3C//DTD SVG 20010904//EN"
 "http://www.w3.org/TR/2001/REC-SVG-20010904/DTD/svg10.dtd">
<svg version="1.0" xmlns="http://www.w3.org/2000/svg"
 width="512.000000pt" height="512.000000pt" viewBox="0 0 512.000000 512.000000"
 preserveAspectRatio="xMidYMid meet">
<metadata>
Created by potrace 1.16, written by Peter Selinger 2001-2019
</metadata>
<g transform="translate(0.000000,512.000000) scale(0.100000,-0.100000)"
fill="#000000" stroke="none">
<path d="M1321 5104 c-100 -36 -194 -124 -233 -222 l-23 -57 0 -1830 0 -1830
23 -58 c30 -74 116 -168 185 -201 29 -14 81 -30 117 -36 39 -6 305 -10 671
-10 l606 0 19 -42 c10 -24 34 -64 52 -90 l32 -48 0 -340 0 -340 645 0 645 0
-2 1078 -3 1077 -22 40 c-12 22 -142 170 -288 330 l-265 289 0 981 c0 1065 1
1045 -55 1141 -34 59 -102 121 -165 152 l-55 27 -920 2 c-811 2 -925 0 -964
-13z m1847 -99 c28 -9 70 -30 94 -48 43 -33 97 -116 98 -149 0 -17 -58 -18
-1090 -18 -1236 0 -1116 -10 -1060 87 35 62 83 100 153 124 48 17 112 18 903
19 734 0 857 -2 902 -15z m202 -720 l0 -395 -135 0 -135 0 0 210 0 210 -330 0
-330 0 0 -50 0 -50 285 0 285 0 0 -160 0 -160 -80 0 -80 0 0 75 0 75 -190 0
-190 0 0 -75 0 -75 -30 0 c-25 0 -30 4 -30 25 0 23 -4 25 -45 25 -41 0 -45 -2
-45 -25 l0 -25 -115 0 -115 0 0 75 0 75 -185 0 -185 0 0 -75 0 -75 -85 0 -85
0 0 160 0 160 285 0 285 0 0 45 0 45 -330 0 -330 0 0 -205 0 -205 -145 0 -145
0 0 395 0 395 1100 0 1100 0 0 -395z m-1910 -575 l0 -70 45 0 45 0 0 70 0 70
80 0 80 0 0 -60 0 -60 190 0 190 0 0 60 0 60 115 0 c108 0 115 -1 115 -20 0
-17 -7 -20 -45 -20 l-45 0 0 -40 0 -40 -40 0 c-38 0 -40 -2 -40 -30 0 -28 2
-30 40 -30 39 0 40 -1 40 -35 l0 -35 -120 0 -120 0 0 40 0 40 -45 0 -45 0 0
-40 0 -40 -40 0 -40 0 0 -45 0 -45 -45 0 -45 0 0 -45 0 -45 45 0 45 0 0 40 c0
39 1 40 35 40 34 0 35 -1 35 -40 l0 -40 50 0 50 0 0 40 c0 39 1 40 35 40 34 0
35 -1 35 -40 l0 -40 45 0 45 0 0 -85 0 -85 40 0 40 0 0 -75 0 -75 -40 0 -40 0
0 -50 0 -50 45 0 45 0 0 45 0 45 40 0 40 0 0 -45 0 -45 45 0 45 0 0 130 0 130
-40 0 c-39 0 -40 1 -40 35 0 34 1 35 40 35 l40 0 0 85 0 85 45 0 45 0 0 40 c0
39 1 40 35 40 33 0 35 -2 35 -35 0 -34 1 -35 40 -35 l40 0 0 -45 0 -45 50 0
50 0 0 40 0 40 40 0 40 0 0 40 0 40 40 0 40 0 0 50 0 50 -45 0 -45 0 0 -45 0
-45 -120 0 -120 0 0 45 0 45 -45 0 -45 0 0 -45 0 -45 -80 0 -80 0 0 65 0 65
40 0 40 0 0 65 0 65 30 0 30 0 0 -60 0 -60 190 0 190 0 0 60 0 60 80 0 80 0 0
-70 0 -70 45 0 45 0 0 70 0 70 135 0 135 0 0 -820 c0 -451 -2 -820 -4 -820 -1
0 -57 62 -122 138 -65 75 -125 143 -134 150 -166 139 -430 23 -430 -189 0 -33
6 -75 14 -94 8 -19 91 -142 185 -273 94 -132 171 -246 171 -255 0 -50 60 -47
-946 -47 l-934 0 0 1105 0 1105 145 0 145 0 0 -70z m860 -275 l0 -75 -80 0
-80 0 0 35 c0 35 0 35 45 35 l45 0 0 40 c0 39 1 40 35 40 l35 0 0 -75z m1390
-1037 c122 -134 226 -253 231 -266 5 -13 9 -365 9 -788 l0 -764 -535 0 -535 0
0 74 c0 52 -4 77 -14 86 -16 13 -76 103 -76 113 0 4 69 7 153 8 83 0 177 4
207 9 53 7 56 7 78 -21 41 -50 224 -169 261 -169 10 0 51 71 51 87 0 4 -35 26
-78 47 -111 57 -186 136 -246 256 -74 151 -89 264 -65 490 l12 106 -186 258
c-102 143 -188 271 -191 286 -13 69 46 152 119 166 39 7 105 -2 105 -15 0 -5
-16 -21 -35 -35 -19 -15 -39 -35 -45 -46 -13 -25 3 -66 30 -75 22 -7 73 19
105 55 10 11 21 20 25 20 3 0 96 -105 206 -234 147 -172 211 -239 243 -257 61
-32 130 -104 165 -170 16 -30 30 -55 31 -56 1 -2 23 4 49 13 44 15 47 18 41
43 -18 74 -114 191 -205 250 -31 20 -75 57 -98 82 l-42 46 0 322 c0 176 2 321
4 321 3 0 104 -109 226 -242z m-680 -980 c0 -114 20 -230 56 -322 19 -50 38
-99 41 -109 5 -17 -35 -17 -873 -15 l-879 3 -41 22 c-63 34 -97 66 -129 125
-29 51 -30 59 -33 201 l-4 147 931 0 931 0 0 -52z m920 -1133 l0 -185 -535 0
-535 0 0 185 0 185 535 0 535 0 0 -185z"/>
<path d="M1460 2975 l0 -335 330 0 330 0 0 50 0 50 -285 0 -285 0 0 285 0 285
-45 0 -45 0 0 -335z"/>
<path d="M3010 3025 l0 -285 -285 0 -285 0 0 -45 0 -45 330 0 330 0 0 330 0
330 -45 0 -45 0 0 -285z"/>
<path d="M1717 3283 c-4 -3 -7 -89 -7 -190 l0 -183 190 0 190 0 0 190 0 190
-183 0 c-101 0 -187 -3 -190 -7z m283 -188 l0 -95 -95 0 -95 0 0 95 0 95 95 0
95 0 0 -95z"/>
<path d="M2470 3100 l0 -190 190 0 190 0 0 190 0 190 -190 0 -190 0 0 -190z
m290 -5 l0 -95 -100 0 -100 0 0 95 0 95 100 0 100 0 0 -95z"/>
<path d="M2060 1205 l0 -55 135 0 135 0 0 55 0 55 -135 0 -135 0 0 -55z"/>
</g>
</svg>
