<?xml version="1.0" standalone="no"?>
<!DOCTYPE svg PUBLIC "-//W3C//DTD SVG 20010904//EN"
 "http://www.w3.org/TR/2001/REC-SVG-20010904/DTD/svg10.dtd">
<svg version="1.0" xmlns="http://www.w3.org/2000/svg"
 width="512.000000pt" height="512.000000pt" viewBox="0 0 512.000000 512.000000"
 preserveAspectRatio="xMidYMid meet">
<metadata>
Created by potrace 1.16, written by Peter Selinger 2001-2019
</metadata>
<g transform="translate(0.000000,512.000000) scale(0.100000,-0.100000)"
fill="#000000" stroke="none">
<path d="M2560 4784 c-188 -50 -342 -180 -426 -359 -44 -95 -57 -172 -52 -302
7 -165 56 -284 169 -407 l49 -54 -37 -12 c-194 -62 -383 -273 -478 -535 -23
-63 -22 -61 -43 -42 -51 46 -63 47 -584 47 -556 0 -535 2 -613 -79 -32 -34
-40 -49 -40 -81 0 -44 25 -77 60 -80 46 -5 64 2 98 35 36 35 37 35 127 35 l90
0 0 -131 c0 -72 4 -139 10 -149 18 -33 66 -40 270 -40 204 0 252 7 270 40 6
10 10 80 10 156 l0 137 84 -5 c101 -5 131 -21 146 -79 7 -26 10 -146 8 -343
-3 -342 -4 -346 -78 -366 -27 -7 -183 -10 -464 -8 -414 3 -425 4 -453 24 -15
12 -29 29 -31 38 -3 14 9 16 92 16 114 0 136 13 136 80 0 68 -22 80 -140 80
l-100 0 0 80 0 80 60 0 c47 0 64 4 80 20 27 27 27 93 0 120 -19 19 -33 20
-260 20 -227 0 -241 -1 -260 -20 -27 -27 -27 -93 0 -120 17 -17 33 -20 120
-20 l100 0 0 -80 0 -80 -180 0 c-167 0 -181 -1 -200 -20 -27 -27 -27 -93 0
-120 19 -19 33 -20 200 -20 l180 0 0 -27 c1 -68 69 -160 145 -194 35 -16 69
-19 267 -19 l228 0 -36 -47 c-49 -65 -89 -147 -129 -266 -49 -149 -65 -236
-72 -388 -8 -184 -13 -179 176 -179 l138 0 17 -67 c28 -119 80 -209 170 -299
89 -88 143 -122 256 -162 66 -23 91 -26 200 -26 109 0 134 3 200 26 113 40
167 74 256 162 90 90 142 180 170 299 l17 67 597 0 597 0 16 -68 c47 -190 169
-344 340 -426 110 -53 168 -66 290 -66 117 0 200 20 297 70 189 99 317 284
339 494 40 367 -218 686 -577 714 l-83 7 -140 324 c-76 179 -137 326 -135 328
2 2 15 -1 30 -7 15 -5 54 -10 87 -10 104 0 99 -21 99 400 0 354 0 360 -21 381
-19 19 -30 21 -98 17 -129 -8 -256 -89 -311 -199 -12 -24 -24 -46 -26 -48 -2
-2 -20 11 -41 29 -65 58 -116 74 -218 71 -236 -8 -260 -3 -327 57 -38 34 -105
116 -142 174 l-18 27 44 11 c87 23 158 93 189 188 6 19 26 48 45 64 45 40 78
110 71 154 -3 18 -22 60 -41 91 -35 58 -61 144 -52 170 3 7 12 13 20 13 29 0
46 42 46 113 0 267 -205 521 -477 591 -77 20 -248 20 -323 0z m320 -179 c71
-25 121 -59 181 -122 61 -64 88 -110 112 -190 l15 -51 -161 -4 c-146 -3 -166
-6 -205 -26 -63 -33 -114 -84 -148 -144 -28 -52 -29 -57 -32 -215 l-4 -161
-51 15 c-81 24 -127 51 -193 114 -107 103 -149 211 -142 363 3 80 8 101 41
169 106 224 359 333 587 252z m240 -562 c1 -57 18 -120 52 -192 34 -71 35 -63
-25 -104 -10 -7 -24 -36 -32 -65 -32 -125 -87 -146 -250 -94 l-60 19 -3 139
c-3 173 8 233 53 279 40 39 87 52 193 54 l72 1 0 -37z m-449 -562 c87 -33 154
-96 267 -250 84 -117 163 -194 231 -228 31 -15 57 -28 58 -28 1 0 -9 -31 -23
-70 -13 -38 -24 -91 -24 -118 0 -47 -1 -47 -27 -41 -16 3 -73 28 -128 54 -120
58 -203 129 -282 243 -57 81 -86 102 -129 91 -32 -8 -64 -50 -64 -83 0 -27 41
-101 86 -154 l24 -29 -34 -47 c-42 -57 -103 -182 -112 -228 l-6 -33 -335 0
-336 0 7 66 c17 163 82 397 147 526 106 210 261 340 427 356 88 9 184 -1 253
-27z m1409 -601 l0 -221 -28 15 c-129 67 -163 240 -70 357 12 15 86 69 94 69
2 0 4 -99 4 -220z m-490 74 c44 -18 73 -52 94 -112 l14 -40 -48 -21 c-57 -25
-151 -47 -237 -56 l-63 -6 0 51 c0 85 50 158 127 185 50 18 65 18 113 -1z
m-2310 -74 l0 -80 -120 0 -120 0 0 80 0 80 120 0 120 0 0 -80z m1572 -183 c78
-53 197 -104 285 -122 36 -8 67 -16 70 -19 3 -2 56 -229 120 -503 122 -528
125 -551 87 -625 -30 -59 -64 -87 -64 -53 0 29 -49 112 -85 143 -40 36 -106
72 -130 72 -14 0 -16 29 -14 268 1 246 -1 272 -20 333 -52 164 -189 297 -355
345 l-64 18 19 49 c17 43 74 137 83 137 2 0 32 -20 68 -43z m1102 -492 l187
-435 -174 -243 -173 -242 -131 -3 -132 -3 29 58 c73 146 71 174 -60 734 -60
260 -110 476 -110 480 0 5 24 9 54 9 71 0 182 24 254 54 31 13 60 24 63 25 4
0 91 -195 193 -434z m-1352 185 c101 -15 171 -45 233 -101 104 -96 125 -179
125 -506 l0 -183 -159 0 -159 0 -4 143 c-3 129 -6 147 -30 199 -34 74 -112
152 -186 186 -57 27 -58 27 -325 30 -236 3 -268 5 -263 18 3 9 6 63 6 120 l0
104 348 0 c191 0 377 -5 414 -10z m-257 -417 c47 -25 86 -65 111 -113 15 -29
19 -70 23 -246 l6 -211 32 -61 32 -62 -750 0 -749 0 0 41 c0 154 107 460 195
558 44 48 137 98 206 110 30 5 234 9 454 8 389 -2 401 -3 440 -24z m2110 -320
c198 -60 335 -245 335 -452 0 -264 -207 -471 -470 -471 -209 0 -396 139 -454
338 l-15 52 79 0 78 0 7 -29 c9 -41 65 -116 112 -151 57 -42 115 -60 194 -60
133 0 242 69 296 187 21 45 26 71 26 134 0 69 -5 88 -32 143 -36 74 -82 119
-158 153 -69 32 -174 34 -251 5 l-53 -20 18 27 c10 15 41 59 68 99 l50 71 60
-6 c33 -2 83 -12 110 -20z m-1337 -236 c37 -20 72 -71 72 -104 0 -19 -7 -22
-77 -28 -109 -11 -270 -1 -318 19 -46 19 -100 68 -121 109 l-15 28 213 -3
c182 -3 218 -6 246 -21z m1282 -90 c96 -64 96 -190 0 -254 -57 -39 -146 -28
-194 26 l-19 21 86 0 c104 0 127 14 127 80 0 65 -23 80 -126 80 -79 0 -85 1
-73 17 47 56 141 70 199 30z m-2866 -233 c17 -67 95 -151 175 -188 65 -29 197
-29 262 0 80 37 158 121 175 188 6 25 9 26 85 26 l78 0 -15 -52 c-58 -199
-245 -338 -454 -338 -209 0 -396 139 -454 338 l-15 52 78 0 c76 0 79 -1 85
-26z"/>
</g>
</svg>
