<?xml version="1.0" standalone="no"?>
<!DOCTYPE svg PUBLIC "-//W3C//DTD SVG 20010904//EN"
 "http://www.w3.org/TR/2001/REC-SVG-20010904/DTD/svg10.dtd">
<svg version="1.0" xmlns="http://www.w3.org/2000/svg"
 width="512.000000pt" height="512.000000pt" viewBox="0 0 512.000000 512.000000"
 preserveAspectRatio="xMidYMid meet">
<metadata>
Created by potrace 1.16, written by Peter Selinger 2001-2019
</metadata>
<g transform="translate(0.000000,512.000000) scale(0.100000,-0.100000)"
fill="#000000" stroke="none">
<path d="M2400 4494 c-83 -17 -141 -39 -209 -77 -307 -172 -470 -601 -385
-1011 38 -181 127 -379 239 -527 114 -153 361 -371 493 -436 87 -43 165 -23
220 57 27 40 30 125 7 171 -9 16 -66 66 -128 112 -147 109 -234 191 -312 296
-102 135 -153 246 -189 408 -53 238 38 507 211 628 71 50 242 72 344 45 147
-40 250 -146 306 -315 23 -69 27 -98 27 -210 1 -152 -13 -217 -74 -342 -28
-56 -64 -107 -110 -157 -82 -89 -100 -121 -100 -178 1 -97 81 -172 177 -165
68 5 115 36 195 130 180 211 271 485 255 767 -20 338 -184 614 -441 739 -62
30 -132 55 -180 65 -95 19 -257 20 -346 0z"/>
<path d="M852 3870 c-308 -81 -534 -374 -572 -742 -45 -435 207 -844 576 -938
203 -52 328 3 328 145 0 100 -60 159 -172 170 -117 13 -207 63 -278 158 -85
113 -118 217 -118 367 0 147 30 243 111 357 73 104 176 162 285 163 91 0 164
-28 233 -92 138 -126 172 -324 90 -527 -30 -74 -32 -129 -5 -181 47 -93 176
-118 255 -49 75 66 141 309 131 481 -7 125 -27 201 -83 318 -39 81 -59 107
-137 185 -104 103 -190 154 -312 185 -100 26 -233 26 -332 0z"/>
<path d="M3932 3870 c-120 -32 -206 -84 -308 -185 -78 -78 -98 -104 -137 -185
-56 -117 -76 -193 -83 -318 -10 -172 56 -415 131 -481 79 -69 208 -44 255 49
26 52 25 107 -4 178 -38 96 -49 157 -43 249 7 112 52 208 132 281 161 148 386
116 519 -72 80 -113 110 -209 110 -356 0 -150 -33 -254 -118 -367 -71 -95
-161 -145 -278 -158 -113 -11 -173 -71 -172 -171 2 -103 71 -164 186 -164 191
0 401 111 532 283 144 189 211 431 186 675 -37 354 -236 626 -537 733 -87 31
-273 36 -371 9z"/>
<path d="M1899 2666 c-42 -18 -94 -43 -115 -56 -289 -171 -434 -306 -524 -488
-72 -145 -105 -484 -112 -1128 l-3 -270 27 -41 c52 -79 -60 -73 1394 -73
l1297 0 42 25 c97 57 104 212 11 278 l-31 22 -1203 3 -1203 2 6 193 c13 441
36 707 71 814 31 96 147 212 323 323 l54 34 26 -34 c115 -154 273 -263 441
-306 96 -25 255 -22 355 5 153 42 303 144 395 269 25 34 49 61 53 62 19 1 181
-116 249 -179 147 -138 168 -213 177 -646 6 -276 8 -303 26 -334 32 -54 67
-75 138 -79 52 -3 67 0 96 20 19 12 44 36 55 51 20 28 21 39 21 335 -1 333 -9
414 -61 579 -70 220 -299 438 -638 605 -90 44 -107 49 -153 46 -72 -6 -115
-41 -159 -130 -49 -101 -104 -169 -174 -217 -133 -88 -270 -92 -407 -9 -72 43
-126 106 -189 220 -42 78 -57 96 -94 115 -59 31 -101 29 -191 -11z"/>
<path d="M447 2280 c-44 -13 -154 -109 -214 -184 -101 -129 -166 -294 -193
-491 -17 -123 -40 -476 -40 -611 0 -109 2 -124 23 -154 12 -19 38 -43 57 -54
33 -20 53 -21 387 -24 226 -2 366 1 392 8 49 13 107 76 117 124 14 79 -22 156
-89 186 -38 18 -67 20 -296 20 l-253 0 6 103 c11 172 27 328 42 417 24 141 92
260 196 346 24 20 53 54 66 77 71 126 -59 279 -201 237z"/>
<path d="M4577 2266 c-73 -26 -107 -78 -107 -161 0 -61 15 -87 99 -169 143
-138 176 -257 207 -733 l6 -103 -254 0 c-243 0 -256 -1 -298 -22 -51 -26 -90
-89 -90 -147 0 -50 34 -112 77 -141 l37 -25 375 0 c361 0 377 1 411 21 19 11
45 35 57 54 21 30 23 45 23 154 0 255 -36 637 -75 786 -59 233 -278 499 -410
499 -11 0 -37 -6 -58 -13z"/>
</g>
</svg>
